<svg fill="none" viewBox="0 0 16 16" class="icon-3CqDw icon_small-3j6mB dashboard-projects-nav-item__icon" aria-hidden="true" role="presentation" focusable="false" data-testid="svg-icon">
<circle xmlns="http://www.w3.org/2000/svg" stroke-width="1.3" stroke="currentColor" r="6.35" cy="8" cx="8"></circle>
<path xmlns="http://www.w3.org/2000/svg" fill="currentColor" d="M13.223 4.279C13.7299 4.2048 14.1228 4.20161 14.3995 4.24311C14.4994 4.25809 14.5694 4.27603 14.6168 4.29187C14.6066 4.3417 14.5868 4.41239 14.5496 4.50805C14.4157 4.85227 14.1196 5.33193 13.6148 5.91374C12.6143 7.06685 10.9886 8.39895 8.96489 9.58975C6.94115 10.7805 4.99637 11.5493 3.51628 11.8558C2.76948 12.0105 2.21386 12.032 1.85439 11.9781C1.75449 11.9631 1.68456 11.9452 1.63709 11.9293C1.64736 11.8795 1.66708 11.8088 1.70431 11.7132C1.81705 11.4234 2.04472 11.0376 2.41509 10.5757L2.09677 8.98412C0.684811 10.4534 0.0220044 11.8046 0.478776 12.6109C1.29544 14.0525 5.38168 13.2063 9.60566 10.7209C13.8296 8.23541 16.5918 5.05191 15.7751 3.6103C15.3196 2.80619 13.8468 2.71388 11.9003 3.22082L13.223 4.279ZM14.6264 4.19402C14.6266 4.19392 14.6272 4.19652 14.6274 4.20213C14.6263 4.19693 14.6262 4.19413 14.6264 4.19402ZM1.54914 11.8889C1.54933 11.8888 1.55166 11.8903 1.55557 11.8938C1.55091 11.8908 1.54895 11.889 1.54914 11.8889ZM1.62748 12.0272C1.62727 12.0273 1.62677 12.0247 1.62655 12.0191C1.62757 12.0243 1.62768 12.0271 1.62748 12.0272ZM14.6984 4.32744C14.703 4.33043 14.705 4.33218 14.7048 4.3323C14.7046 4.33243 14.7023 4.33094 14.6984 4.32744Z" clip-rule="evenodd" fill-rule="evenodd"></path>
</svg>