<svg fill="#000000" viewBox="0 0 16 16" class="icon-3CqDw icon_small-3j6mB dashboard-projects-nav-item__icon" aria-hidden="true" role="presentation" focusable="false" data-testid="svg-icon">
    <path xmlns="http://www.w3.org/2000/svg" fill="currentColor" d="M2 1.5C1.17157 1.5 0.5 2.17157 0.5 3V11C0.5 11.8284 1.17157 12.5 2 12.5H3.25V14.5C3.25 14.9142 3.58579 15.25 4 15.25C4.41421 15.25 4.75 14.9142 4.75 14.5V12.5H11.25V14.5C11.25 14.9142 11.5858 15.25 12 15.25C12.4142 15.25 12.75 14.9142 12.75 14.5V12.5H14C14.8284 12.5 15.5 11.8284 15.5 11V3C15.5 2.17157 14.8284 1.5 14 1.5H2ZM2 11V3H14V11H2ZM8 8.25C7.58579 8.25 7.25 8.58579 7.25 9C7.25 9.41421 7.58579 9.75 8 9.75H12C12.4142 9.75 12.75 9.41421 12.75 9C12.75 8.58579 12.4142 8.25 12 8.25H8Z" clip-rule="evenodd" fill-rule="evenodd"></path>
</svg>